<?xml version="1.0" encoding="UTF-8" standalone="no"?>
<svg width="1024px" height="10px" viewBox="0 0 1024 10" version="1.1" xmlns="http://www.w3.org/2000/svg" xmlns:xlink="http://www.w3.org/1999/xlink">
    <!-- Generator: sketchtool 3.7 (28169) - http://www.bohemiancoding.com/sketch -->
    <title>935FC519-9425-4122-BFFC-3E6B7F77D4EC</title>
    <desc>Created with sketchtool.</desc>
    <defs></defs>
    <g id="Page-1" stroke="none" stroke-width="1" fill="none" fill-rule="evenodd">
        <g id="Coming-Soon">
            <g id="Site:-Navigation">
                <g id="Border">
                    <g id="Group">
                        <rect id="Rectangle-3" fill="#533E2D" x="0" y="0" width="42.6666667" height="10"></rect>
                        <rect id="Rectangle-3-Copy" fill="#A27035" x="42.6666667" y="0" width="42.6666667" height="10"></rect>
                        <rect id="Rectangle-3-Copy-2" fill="#B88B4A" x="85.3333333" y="0" width="42.6666667" height="10"></rect>
                        <rect id="Rectangle-3-Copy-3" fill="#DDCA7D" x="128" y="0" width="42.6666667" height="10"></rect>
                    </g>
                    <g id="Group-Copy" transform="translate(170.666667, 0.000000)">
                        <rect id="Rectangle-3" fill="#533E2D" x="2.84217094e-14" y="0" width="42.6666667" height="10"></rect>
                        <rect id="Rectangle-3-Copy" fill="#A27035" x="42.6666667" y="0" width="42.6666667" height="10"></rect>
                        <rect id="Rectangle-3-Copy-2" fill="#B88B4A" x="85.3333333" y="0" width="42.6666667" height="10"></rect>
                        <rect id="Rectangle-3-Copy-3" fill="#DDCA7D" x="128" y="0" width="42.6666667" height="10"></rect>
                    </g>
                    <g id="Group-Copy-2" transform="translate(341.333333, 0.000000)">
                        <rect id="Rectangle-3" fill="#533E2D" x="0" y="0" width="42.6666667" height="10"></rect>
                        <rect id="Rectangle-3-Copy" fill="#A27035" x="42.6666667" y="0" width="42.6666667" height="10"></rect>
                        <rect id="Rectangle-3-Copy-2" fill="#B88B4A" x="85.3333333" y="0" width="42.6666667" height="10"></rect>
                        <rect id="Rectangle-3-Copy-3" fill="#DDCA7D" x="128" y="0" width="42.6666667" height="10"></rect>
                    </g>
                    <g id="Group-Copy-3" transform="translate(512.000000, 0.000000)">
                        <rect id="Rectangle-3" fill="#533E2D" x="0" y="0" width="42.6666667" height="10"></rect>
                        <rect id="Rectangle-3-Copy" fill="#A27035" x="42.6666667" y="0" width="42.6666667" height="10"></rect>
                        <rect id="Rectangle-3-Copy-2" fill="#B88B4A" x="85.3333333" y="0" width="42.6666667" height="10"></rect>
                        <rect id="Rectangle-3-Copy-3" fill="#DDCA7D" x="128" y="0" width="42.6666667" height="10"></rect>
                    </g>
                    <g id="Group-Copy-4" transform="translate(682.666667, 0.000000)">
                        <rect id="Rectangle-3" fill="#533E2D" x="0" y="0" width="42.6666667" height="10"></rect>
                        <rect id="Rectangle-3-Copy" fill="#A27035" x="42.6666667" y="0" width="42.6666667" height="10"></rect>
                        <rect id="Rectangle-3-Copy-2" fill="#B88B4A" x="85.3333333" y="0" width="42.6666667" height="10"></rect>
                        <rect id="Rectangle-3-Copy-3" fill="#DDCA7D" x="128" y="0" width="42.6666667" height="10"></rect>
                    </g>
                    <g id="Group-Copy-5" transform="translate(853.333333, 0.000000)">
                        <rect id="Rectangle-3" fill="#533E2D" x="0" y="0" width="42.6666667" height="10"></rect>
                        <rect id="Rectangle-3-Copy" fill="#A27035" x="42.6666667" y="0" width="42.6666667" height="10"></rect>
                        <rect id="Rectangle-3-Copy-2" fill="#B88B4A" x="85.3333333" y="0" width="42.6666667" height="10"></rect>
                        <rect id="Rectangle-3-Copy-3" fill="#DDCA7D" x="128" y="0" width="42.6666667" height="10"></rect>
                    </g>
                </g>
            </g>
        </g>
    </g>
</svg>